<?xml version="1.0" encoding="iso-8859-1"?>
<!-- Generator: Adobe Illustrator 19.0.0, SVG Export Plug-In . SVG Version: 6.00 Build 0)  -->
<svg version="1.1" xmlns="http://www.w3.org/2000/svg" xmlns:xlink="http://www.w3.org/1999/xlink" x="0px" y="0px"
	 viewBox="0 0 1920 1080" style="enable-background:new 0 0 1920 1080;" xml:space="preserve">
<g id="main">
	<rect id="sky" style="fill:#0E0E0E;" width="1920" height="1080"/>
	<g id="stars">
		<g id="XMLID_693_">
			<g id="XMLID_577_">
				<path style="fill:#CCCCCC;" d="M416.382,166.057c1.287,0,1.289-2,0-2C415.095,164.057,415.093,166.057,416.382,166.057
					L416.382,166.057z"/>
			</g>
		</g>
		<g id="XMLID_692_">
			<g id="XMLID_571_">
				<path style="fill:#CCCCCC;" d="M570.558,112.421c0.804,0,0.806-1.25,0-1.25C569.753,111.171,569.752,112.421,570.558,112.421
					L570.558,112.421z"/>
			</g>
		</g>
		<g id="XMLID_691_">
			<g id="XMLID_565_">
				<path style="fill:#CCCCCC;" d="M657.457,156.969c4.022,0,4.028-6.25,0-6.25C653.435,150.719,653.429,156.969,657.457,156.969
					L657.457,156.969z"/>
			</g>
		</g>
		<g id="XMLID_690_">
			<g id="XMLID_559_">
				<path style="fill:#CCCCCC;" d="M660.26,216.139c0.804,0,0.806-1.25,0-1.25C659.456,214.889,659.454,216.139,660.26,216.139
					L660.26,216.139z"/>
			</g>
		</g>
		<g id="XMLID_689_">
			<g id="XMLID_553_">
				<path style="fill:#CCCCCC;" d="M578.967,202.123c0.804,0,0.806-1.25,0-1.25C578.163,200.873,578.162,202.123,578.967,202.123
					L578.967,202.123z"/>
			</g>
		</g>
		<g id="XMLID_688_">
			<g id="XMLID_547_">
				<path style="fill:#CCCCCC;" d="M522.904,160.075c0.804,0,0.806-1.25,0-1.25C522.099,158.825,522.098,160.075,522.904,160.075
					L522.904,160.075z"/>
			</g>
		</g>
		<g id="XMLID_687_">
			<g id="XMLID_541_">
				<path style="fill:#CCCCCC;" d="M1882.453,732.802c1.93,0,1.934-3,0-3C1880.523,729.802,1880.52,732.802,1882.453,732.802
					L1882.453,732.802z"/>
			</g>
		</g>
		<g id="XMLID_686_">
			<g id="XMLID_535_">
				<path style="fill:#CCCCCC;" d="M1823.586,738.159c1.609,0,1.611-2.5,0-2.5C1821.977,735.659,1821.975,738.159,1823.586,738.159
					L1823.586,738.159z"/>
			</g>
		</g>
		<g id="XMLID_685_">
			<g id="XMLID_529_">
				<path style="fill:#CCCCCC;" d="M1789.948,657.491c2.413,0,2.417-3.75,0-3.75
					C1787.535,653.741,1787.531,657.491,1789.948,657.491L1789.948,657.491z"/>
			</g>
		</g>
		<g id="XMLID_684_">
			<g id="XMLID_523_">
				<path style="fill:#CCCCCC;" d="M1874.044,634.44c1.609,0,1.611-2.5,0-2.5C1872.435,631.94,1872.432,634.44,1874.044,634.44
					L1874.044,634.44z"/>
			</g>
		</g>
		<g id="XMLID_682_">
			<g id="XMLID_511_">
				<path style="fill:#CCCCCC;" d="M1916.092,649.403c6.434,0,6.445-10,0-10C1909.657,639.403,1909.646,649.403,1916.092,649.403
					L1916.092,649.403z"/>
			</g>
		</g>
		<g id="XMLID_681_">
			<g id="XMLID_505_">
				<path style="fill:#CCCCCC;" d="M1834.799,693.307c1.609,0,1.611-2.5,0-2.5C1833.19,690.807,1833.188,693.307,1834.799,693.307
					L1834.799,693.307z"/>
			</g>
		</g>
		<g id="XMLID_680_">
			<g id="XMLID_499_">
				<path style="fill:#CCCCCC;" d="M1251.734,799.829c1.609,0,1.611-2.5,0-2.5C1250.126,797.329,1250.123,799.829,1251.734,799.829
					L1251.734,799.829z"/>
			</g>
		</g>
		<g id="XMLID_679_">
			<g id="XMLID_493_">
				<path style="fill:#CCCCCC;" d="M1372.272,650.634c0.804,0,0.806-1.25,0-1.25
					C1371.467,649.384,1371.466,650.634,1372.272,650.634L1372.272,650.634z"/>
			</g>
		</g>
		<g id="XMLID_678_">
			<g id="XMLID_487_">
				<path style="fill:#CCCCCC;" d="M1523.644,625.103c4.022,0,4.028-6.25,0-6.25
					C1519.623,618.853,1519.616,625.103,1523.644,625.103L1523.644,625.103z"/>
			</g>
		</g>
		<g id="XMLID_677_">
			<g id="XMLID_481_">
				<path style="fill:#CCCCCC;" d="M1607.74,580.555c0.804,0,0.806-1.25,0-1.25C1606.936,579.305,1606.934,580.555,1607.74,580.555
					L1607.74,580.555z"/>
			</g>
		</g>
		<g id="XMLID_676_">
			<g id="XMLID_475_">
				<path style="fill:#CCCCCC;" d="M1658.198,740.962c1.609,0,1.611-2.5,0-2.5C1656.589,738.462,1656.586,740.962,1658.198,740.962
					L1658.198,740.962z"/>
			</g>
		</g>
		<g id="XMLID_675_">
			<g id="XMLID_469_">
				<path style="fill:#CCCCCC;" d="M1548.873,782.76c1.287,0,1.289-2,0-2C1547.586,780.76,1547.584,782.76,1548.873,782.76
					L1548.873,782.76z"/>
			</g>
		</g>
		<g id="XMLID_674_">
			<g id="XMLID_463_">
				<path style="fill:#CCCCCC;" d="M1456.368,738.659c2.252,0,2.256-3.5,0-3.5C1454.115,735.159,1454.112,738.659,1456.368,738.659
					L1456.368,738.659z"/>
			</g>
		</g>
		<g id="XMLID_673_">
			<g id="XMLID_457_">
				<path style="fill:#CCCCCC;" d="M1661.001,59.16c0.804,0,0.806-1.25,0-1.25C1660.196,57.91,1660.195,59.16,1661.001,59.16
					L1661.001,59.16z"/>
			</g>
		</g>
		<g id="XMLID_672_">
			<g id="XMLID_451_">
				<path style="fill:#CCCCCC;" d="M1792.751,31.128c0.804,0,0.806-1.25,0-1.25C1791.947,29.878,1791.945,31.128,1792.751,31.128
					L1792.751,31.128z"/>
			</g>
		</g>
		<g id="XMLID_664_">
			<g id="XMLID_403_">
				<path style="fill:#CCCCCC;" d="M1761.916,8.703c0.804,0,0.806-1.25,0-1.25C1761.111,7.453,1761.11,8.703,1761.916,8.703
					L1761.916,8.703z"/>
			</g>
		</g>
		<g id="XMLID_663_">
			<g id="XMLID_397_">
				<path style="fill:#CCCCCC;" d="M1697.442,53.554c0.804,0,0.806-1.25,0-1.25C1696.638,52.304,1696.637,53.554,1697.442,53.554
					L1697.442,53.554z"/>
			</g>
		</g>
		<g id="XMLID_662_">
			<g id="XMLID_391_">
				<path style="fill:#CCCCCC;" d="M1683.426,5.9c0.804,0,0.806-1.25,0-1.25C1682.622,4.65,1682.621,5.9,1683.426,5.9L1683.426,5.9z
					"/>
			</g>
		</g>
		<g id="XMLID_648_">
			<g id="XMLID_307_">
				<path style="fill:#CCCCCC;" d="M576.164,256.009c1.609,0,1.611-2.5,0-2.5C574.555,253.509,574.553,256.009,576.164,256.009
					L576.164,256.009z"/>
			</g>
		</g>
		<g id="XMLID_647_">
			<g id="XMLID_303_">
				<path style="fill:#CCCCCC;" d="M1812.373,988.893c3.217,0,3.223-5,0-5C1809.156,983.893,1809.151,988.893,1812.373,988.893
					L1812.373,988.893z"/>
			</g>
		</g>
		<g id="XMLID_646_">
			<g id="XMLID_297_">
				<path style="fill:#CCCCCC;" d="M1571.298,1071.436c4.826,0,4.834-7.5,0-7.5
					C1566.473,1063.936,1566.465,1071.436,1571.298,1071.436L1571.298,1071.436z"/>
			</g>
		</g>
		<g id="XMLID_645_">
			<g id="XMLID_289_">
				<path style="fill:#CCCCCC;" d="M1397.5,780.206c1.609,0,1.611-2.5,0-2.5C1395.892,777.706,1395.889,780.206,1397.5,780.206
					L1397.5,780.206z"/>
			</g>
		</g>
		<g id="XMLID_644_">
			<g id="XMLID_287_">
				<path style="fill:#CCCCCC;" d="M1515.235,398.669c4.826,0,4.834-7.5,0-7.5C1510.409,391.169,1510.401,398.669,1515.235,398.669
					L1515.235,398.669z"/>
			</g>
		</g>
		<g id="XMLID_643_">
			<g id="XMLID_279_">
				<path style="fill:#CCCCCC;" d="M1918.895,194.839c2.252,0,2.256-3.5,0-3.5C1916.643,191.339,1916.639,194.839,1918.895,194.839
					L1918.895,194.839z"/>
			</g>
		</g>
		<g id="XMLID_642_">
			<g id="XMLID_275_">
				<path style="fill:#CCCCCC;" d="M598.59,1016.3c2.413,0,2.417-3.75,0-3.75C596.177,1012.55,596.173,1016.3,598.59,1016.3
					L598.59,1016.3z"/>
			</g>
		</g>
		<g id="XMLID_640_">
			<g id="XMLID_259_">
				<path style="fill:#CCCCCC;" d="M141.669,956.808c1.609,0,1.611-2.5,0-2.5C140.06,954.308,140.058,956.808,141.669,956.808
					L141.669,956.808z"/>
			</g>
		</g>
		<g id="XMLID_32_">
			<g id="XMLID_639_">
				<g id="XMLID_253_">
					<path style="fill:#CCCCCC;" d="M211.749,172.538c2.413,0,2.417-3.75,0-3.75C209.336,168.788,209.332,172.538,211.749,172.538
						L211.749,172.538z"/>
				</g>
			</g>
		</g>
		<g id="XMLID_638_">
			<g id="XMLID_247_">
				<path style="fill:#CCCCCC;" d="M1725.474,251.028c2.413,0,2.417-3.75,0-3.75
					C1723.061,247.278,1723.057,251.028,1725.474,251.028L1725.474,251.028z"/>
			</g>
		</g>
		<g id="XMLID_637_">
			<g id="XMLID_241_">
				<path style="fill:#CCCCCC;" d="M339,1016.3c2.413,0,2.417-3.75,0-3.75C336.587,1012.55,336.583,1016.3,339,1016.3L339,1016.3z"
					/>
			</g>
		</g>
		<g id="XMLID_635_">
			<g id="XMLID_229_">
				<path style="fill:#CCCCCC;" d="M609.802,691.129c2.413,0,2.417-3.75,0-3.75C607.389,687.379,607.385,691.129,609.802,691.129
					L609.802,691.129z"/>
			</g>
		</g>
		<g id="XMLID_632_">
			<g id="XMLID_211_">
				<path style="fill:#CCCCCC;" d="M141.669,498.334c3.217,0,3.223-5,0-5C138.452,493.334,138.446,498.334,141.669,498.334
					L141.669,498.334z"/>
			</g>
		</g>
		<g id="XMLID_631_">
			<g id="XMLID_209_">
				<path style="fill:#CCCCCC;" d="M351.909,834.414c6.435,0,6.445-10,0-10C345.474,824.414,345.463,834.414,351.909,834.414
					L351.909,834.414z"/>
			</g>
		</g>
		<g id="XMLID_630_">
			<g id="XMLID_1018_">
				<path style="fill:#CCCCCC;" d="M1083.542,968.967c6.435,0,6.445-10,0-10C1077.108,958.967,1077.097,968.967,1083.542,968.967
					L1083.542,968.967z"/>
			</g>
		</g>
		<g id="XMLID_629_">
			<g id="XMLID_193_">
				<path style="fill:#CCCCCC;" d="M43.557,397.419c3.217,0,3.223-5,0-5C40.34,392.419,40.335,397.419,43.557,397.419
					L43.557,397.419z"/>
			</g>
		</g>
		<g id="XMLID_626_">
			<g id="XMLID_175_">
				<path style="fill:#CCCCCC;" d="M402.366,1068.311c0.804,0,0.806-1.25,0-1.25C401.562,1067.061,401.56,1068.311,402.366,1068.311
					L402.366,1068.311z"/>
			</g>
		</g>
		<g id="XMLID_619_">
			<g id="XMLID_133_">
				<path style="fill:#CCCCCC;" d="M301.451,541.31c0.804,0,0.806-1.25,0-1.25C300.647,540.06,300.645,541.31,301.451,541.31
					L301.451,541.31z"/>
			</g>
		</g>
		<g id="XMLID_618_">
			<g id="XMLID_127_">
				<path style="fill:#CCCCCC;" d="M377.137,552.523c0.804,0,0.806-1.25,0-1.25C376.333,551.273,376.332,552.523,377.137,552.523
					L377.137,552.523z"/>
			</g>
		</g>
		<g id="XMLID_617_">
			<g id="XMLID_121_">
				<path style="fill:#CCCCCC;" d="M228.568,773.975c0.804,0,0.806-1.25,0-1.25C227.764,772.725,227.762,773.975,228.568,773.975
					L228.568,773.975z"/>
			</g>
		</g>
		<g id="XMLID_616_">
			<g id="XMLID_162_">
				<path style="fill:#CCCCCC;" d="M96.818,733.177c2.413,0,2.417-3.75,0-3.75C94.405,729.427,94.401,733.177,96.818,733.177
					L96.818,733.177z"/>
			</g>
		</g>
		<g id="XMLID_615_">
			<g id="XMLID_113_">
				<path style="fill:#CCCCCC;" d="M175.307,695.861c1.287,0,1.289-2,0-2C174.02,693.861,174.018,695.861,175.307,695.861
					L175.307,695.861z"/>
			</g>
		</g>
		<g id="XMLID_614_">
			<g id="XMLID_199_">
				<path style="fill:#CCCCCC;" d="M164.094,787.385c7.239,0,7.251-11.25,0-11.25C156.855,776.135,156.843,787.385,164.094,787.385
					L164.094,787.385z"/>
			</g>
		</g>
		<g id="XMLID_588_">
			<g id="XMLID_67_">
				<path style="fill:#CCCCCC;" d="M1789.948,451.608c0.804,0,0.806-1.25,0-1.25
					C1789.143,450.358,1789.142,451.608,1789.948,451.608L1789.948,451.608z"/>
			</g>
		</g>
		<g id="XMLID_30_">
			<g id="XMLID_540_">
				<path style="fill:#CCCCCC;" d="M1419.926,43.913c6.435,0,6.445-10,0-10C1413.491,33.913,1413.481,43.913,1419.926,43.913
					L1419.926,43.913z"/>
			</g>
		</g>
		<g id="XMLID_28_">
			<g id="XMLID_702_">
				<path style="fill:#CCCCCC;" d="M1627.362,143.256c0.804,0,0.806-1.25,0-1.25
					C1626.558,142.006,1626.557,143.256,1627.362,143.256L1627.362,143.256z"/>
			</g>
		</g>
		<g id="XMLID_27_">
			<g id="XMLID_707_">
				<path style="fill:#CCCCCC;" d="M1504.022,87.192c0.804,0,0.806-1.25,0-1.25C1503.218,85.942,1503.216,87.192,1504.022,87.192
					L1504.022,87.192z"/>
			</g>
		</g>
	</g>
	<g id="sign">
		<path id="XMLID_9_" style="fill:#F5D300;" d="M634.492,290.51H524.531c-17.709,0-32.685,6.122-44.922,18.359
			c-12.109,12.241-18.164,27.084-18.164,44.531c0,17.45,6.183,32.294,18.555,44.531c12.237,12.241,27.081,18.359,44.531,18.359
			h109.961v78.711H524.531c-39.194,0-72.592-13.8-100.195-41.406c-27.606-27.603-41.406-61.001-41.406-100.195
			c0-39.063,13.8-72.394,41.406-100c27.603-27.603,61.001-41.406,100.195-41.406h109.961V290.51z"/>
		<path id="XMLID_11_" style="fill:#F5D300;" d="M807.344,211.994c39.19,0,72.589,13.803,100.195,41.406
			c27.603,27.606,41.406,60.938,41.406,100c0,39.194-13.803,72.592-41.406,100.195c-27.606,27.606-61.005,41.406-100.195,41.406
			h-21.484c-39.194,0-72.592-13.8-100.195-41.406c-27.606-27.603-41.406-61.001-41.406-100.195c0-39.063,13.8-72.394,41.406-100
			c27.603-27.603,61.001-41.406,100.195-41.406H807.344z M807.344,416.291c17.447,0,32.291-6.119,44.531-18.359
			c12.369-12.237,18.555-27.081,18.555-44.531c0-17.447-6.055-32.291-18.164-44.531c-12.241-12.237-27.216-18.359-44.922-18.359
			h-21.484c-17.709,0-32.685,6.122-44.922,18.359c-12.109,12.241-18.164,27.084-18.164,44.531c0,17.45,6.183,32.294,18.555,44.531
			c12.237,12.241,27.081,18.359,44.531,18.359H807.344z"/>
		<path id="XMLID_14_" style="fill:#F5D300;" d="M970.43,495.002V212.971h183.594c22.656,2.084,41.275,8.075,55.859,17.969
			c14.581,9.897,25.26,23.178,32.031,39.844c5.206,25,5.469,44.272,0.781,57.813c-4.688,13.544-12.891,24.872-24.609,33.984
			c-11.719,9.116-28.516,16.278-50.391,21.484l21.094,26.953h150.781v83.984h-177.734l-89.453-93.164v93.164H970.43z
			 M1072.383,283.283v51.953h71.094c3.775,0,7.877-1.397,12.305-4.199c4.425-2.798,6.769-9.863,7.031-21.191
			c-0.653-10.806-3.29-17.935-7.91-21.387c-4.623-3.448-8.496-5.176-11.621-5.176H1072.383z"/>
		<path id="XMLID_17_" style="fill:#F5D300;" d="M1273.164,495.002V296.955h-58.594v-83.984h300.391v83.984h-150v32.422h96.875
			v49.219h-96.875v32.422h173.828v83.984H1273.164z"/>
		<path id="XMLID_19_" style="fill:#F5D300;" d="M676.387,745.471l-29.688,119.531h-91.797l-64.844-198.047h-58.594v-83.984h129.297
			l38.672,121.875l33.594-121.875h84.375l39.258,121.875l26.172-121.875h90.82l-69.727,282.031h-91.797L676.387,745.471z"/>
		<path id="XMLID_21_" style="fill:#F5D300;" d="M811.934,666.955v-83.984h236.719l94.336,282.031h-106.641l-17.773-50.781h-83.789
			l-17.773,50.781H815.84l65.039-198.047H811.934z M978.926,645.471l-40.43,111.719h77.734L978.926,645.471z"/>
		<path id="XMLID_24_" style="fill:#F5D300;" d="M1139.082,865.002V582.971h183.594c22.656,2.084,41.275,8.075,55.859,17.969
			c14.581,9.896,25.26,23.178,32.031,39.844c5.206,25,5.469,44.271,0.781,57.813c-4.688,13.544-12.891,24.872-24.609,33.984
			c-11.719,9.115-28.516,16.278-50.391,21.484l21.094,26.953h150.781v83.984h-177.734l-89.453-93.164v93.164H1139.082z
			 M1241.035,653.283v51.953h71.094c3.775,0,7.877-1.397,12.305-4.199c4.425-2.799,6.769-9.863,7.031-21.191
			c-0.653-10.807-3.29-17.936-7.91-21.387c-4.623-3.448-8.496-5.176-11.621-5.176H1241.035z"/>
		<rect id="XMLID_7_" x="573.5" y="416.291" style="fill:#F5D300;" width="438" height="78.711"/>
	</g>
</g>
<g id="rulers">
	<g id="XMLID_1_">
	</g>
	<g id="XMLID_2_">
	</g>
	<g id="XMLID_3_">
	</g>
	<g id="XMLID_4_">
	</g>
	<g id="XMLID_8_">
	</g>
	<g id="XMLID_29_">
	</g>
	<g id="XMLID_31_">
	</g>
	<g id="XMLID_33_">
	</g>
	<g id="XMLID_34_">
	</g>
	<g id="XMLID_35_">
	</g>
	<g id="XMLID_36_">
	</g>
	<g id="XMLID_37_">
	</g>
	<g id="XMLID_38_">
	</g>
	<g id="XMLID_39_">
	</g>
	<g id="XMLID_40_">
	</g>
</g>
</svg>
